# xmcd CD database file
#
# Track frame offsets:
#	150
#	20292
#	39407
#	64447
#	84257
#	100304
#	129370
#	148080
#	175959
#	199356
#
# Disc length: 2880 seconds
#
# Revision: 0
# Processed by: cddbd v1.5.1PL0 Copyright (c) Steve Scherf et al.
# Submitted via: CDex 1.51
#
DISCID=890b3e0a
DTITLE=Leo Nine - Slow Steady Heart
DYEAR=2005
DGENRE=Rock
TTITLE0=The Slow Bullet
TTITLE1=Curbside
TTITLE2=Slow Steady Heart
TTITLE3=Stay
TTITLE4=Give A Little
TTITLE5=Dragging My Head Through Mud
TTITLE6=Shining Like The Sun
TTITLE7=Pieces
TTITLE8=Keeping This Secret
TTITLE9=Everything Is Okay
EXTD=YEAR: 2005
EXTT0=
EXTT1=
EXTT2=
EXTT3=
EXTT4=
EXTT5=
EXTT6=
EXTT7=
EXTT8=
EXTT9=
PLAYORDER=
